<svg width="69" height="69" viewBox="0 0 69 69" fill="none" xmlns="http://www.w3.org/2000/svg">
<path d="M49.3139 43.3962H46.1973L45.0926 42.331C48.9588 37.8336 51.2864 31.9949 51.2864 25.6432C51.2864 11.4803 39.8062 0 25.6432 0C11.4803 0 0 11.4803 0 25.6432C0 39.8062 11.4803 51.2864 25.6432 51.2864C31.9949 51.2864 37.8336 48.9588 42.331 45.0926L43.3962 46.1973V49.3139L63.1218 69L69 63.1218L49.3139 43.3962ZM25.6432 43.3962C15.8199 43.3962 7.89022 35.4666 7.89022 25.6432C7.89022 15.8199 15.8199 7.89022 25.6432 7.89022C35.4666 7.89022 43.3962 15.8199 43.3962 25.6432C43.3962 35.4666 35.4666 43.3962 25.6432 43.3962Z" fill="#C5C0B1"/>
</svg>
